<svg width="36" height="34" fill="none" xmlns="http://www.w3.org/2000/svg"><path fill-rule="evenodd" clip-rule="evenodd" d="M11.145 6.732C12.022 4.014 14.637 2 17.797 2s5.774 2.014 6.65 4.732H11.146zm15.437.254a8.534 8.534 0 00-.057-.254C25.597 2.873 22.041 0 17.797 0c-4.245 0-7.801 2.873-8.73 6.732-.02.084-.039.169-.056.254H.5a.5.5 0 00-.487.616l6.04 25.196a.5.5 0 00.487.384h22.511a.5.5 0 00.486-.384L35.58 7.602a.5.5 0 00-.486-.616h-8.51zm-15.75 1.746H2.021l5.35 22.32a.5.5 0 00.487.383h19.875a.5.5 0 00.486-.383l5.352-22.32h-22.74z" fill="#fff"/></svg>