<svg width="69" height="69" fill="none" xmlns="http://www.w3.org/2000/svg"><g clip-path="url(#clip0)" fill="#444"><path d="M14.884 62.352l4.779.034c.738.018 1.427-.594 1.513-1.44l.144-37.556c.019-.738-.594-1.427-1.439-1.514-.738-.018-1.427.594-1.513 1.44l-.175 36.187-1.933-.027.2-49.221 8.08.03c.738.018 1.427-.594 1.514-1.44l.023-5.234 16.617.05-.198 5.274c.01.456.156.699.41 1.01.252.31.64.406.922.435l2.846.007-.105 37.732c-.018.738.594 1.427 1.44 1.513.738.019 1.426-.594 1.513-1.439l.105-37.732 2.389.017-.306 49.154-8.08-.03c-.739-.02-1.428.594-1.514 1.439l-.024 5.234-16.617-.05.023-5.234c.019-.739-.594-1.427-1.439-1.514-.456.01-.699.156-1.01.41-.31.252-.407.64-.435.922l-.061 6.711c.292.486.477.903.73 1.214.252.31.641.407.923.436l19.463.056c.738.019 1.427-.594 1.514-1.439l.023-5.235 8.08.03c.457-.01.7-.156 1.01-.409.31-.253.407-.641.504-1.03l.103-26.033.103-26.034c.018-.738-.594-1.427-1.44-1.513l-8.08-.03.024-5.235c.018-.738-.594-1.427-1.44-1.514L24.5.66c-.456.01-.699.156-1.01.409-.31.253-.406.641-.435.923l-.024 5.235-8.08-.03c-.31.253-.66.33-.97.584-.311.253-.408.641-.505 1.03l-.099 52.135c.01.456.157.699.41 1.01.32.203.641.406 1.097.396z"/><path d="M30.374 60.636c.72.756 1.817 1.153 2.837 1.2 1.02.048 2.03-.36 2.854-1.187.757-.72 1.154-1.818 1.201-2.837l.042-15.423c.728-.438 1.349-.944 1.97-1.45a8.044 8.044 0 002.431-5.956c.035-3.127-1.677-5.864-4.31-7.386l.041-15.423c.047-1.02-.361-2.03-1.188-2.854-.72-.757-1.817-1.154-2.837-1.201-1.02-.048-2.03.361-2.854 1.188-.757.72-1.154 1.817-1.201 2.837l-.042 15.423c-.728.438-1.349.943-1.97 1.45a8.044 8.044 0 00-2.431 5.955c-.036 3.128 1.677 5.865 4.31 7.386l-.041 15.423c.06 1.088.468 2.098 1.188 2.855zm1.657-2.848l.09-16.443c-.05-.63-.449-1.184-.944-1.349-2.128-.9-3.403-2.91-3.347-5.124a6.09 6.09 0 011.599-3.935c.514-.574 1.174-.905 1.659-1.197l.175-.039c.592-.224.931-.758.989-1.322l.021-16.335c-.05-.632.572-1.137 1.135-1.08.282.03.563.058.816.369.146.242.292.485.37.834l-.02 16.336c-.058.564.34 1.117.943 1.35 2.128.9 3.47 2.802 3.453 5.191a6.09 6.09 0 01-1.598 3.936c-.514.573-1.174.904-1.66 1.196l-.174.039c-.592.224-.932.759-.99 1.322l-.234 16.2c.049.631-.572 1.137-1.136 1.08-.281-.03-.563-.058-.816-.369a.696.696 0 01-.33-.66zM21.16 19.389l.065-3.41c.018-.738-.594-1.426-1.44-1.513-.456.01-.698.156-1.009.41-.31.252-.407.64-.436.922l-.064 3.41c-.019.737.594 1.426 1.439 1.513.845.086 1.427-.594 1.445-1.332z"/></g><defs><clipPath id="clip0"><path d="M0 0h69v69H0V0z" fill="#fff"/></clipPath></defs></svg>