<svg width="69" height="69" fill="none" xmlns="http://www.w3.org/2000/svg"><path d="M25.595 69.43l21.038.032c3.697.007 6.701-2.97 6.708-6.667-.063-.103.04-.166-.023-.27l-7.56-46.636c-.173-.746-.76-1.239-1.569-1.17-.746.174-1.239.76-1.169 1.57l7.56 46.636c-.083 2.181-1.792 3.797-3.91 3.816l-21.038-.031c-2.119.02-3.9-1.729-3.92-3.847l7.457-46.466.04-.166c-.077-1.516.846-2.791 2.045-3.384l9.781-.029c.667.16 1.413-.013 1.739-.64.326-.625.09-1.475-.536-1.801l-1.515-8.73c-.11-.642-.696-1.135-1.402-1.128l-6.52.02c-.667-.16-1.223.322-1.28.925l-1.516 8.882c-2.025 1.099-3.52 3.294-3.58 5.745l-7.457 46.465-.04.167c.056 3.8 3.033 6.804 6.667 6.708zm8.35-66.327l4.237-.04 1.099 6.428-.167-.04-5.981-.027s-.167-.04-.27.023l1.083-6.344z" fill="#444"/></svg>