<svg width="69" height="69" fill="none" xmlns="http://www.w3.org/2000/svg"><path d="M37.546.116c-7.99-.457-15.893 4.03-23.323 13.415-.342.436-.389 1.05-.035 1.463l8.998 13.495c.342.566 1.18.707 1.746.365.567-.343.708-1.18.365-1.747l-8.666-12.775C23.506 6.14 30.443 2.195 37.44 2.499c4.53.27 8.532 2.427 11.66 4.904l-4.716 9.206c-.354.59-.023 1.31.567 1.663.52.272 1.074.082 1.404-.2.083-.072.165-.143.177-.296l4.445-8.687c2.302 2.182 3.92 4.235 4.687 5.296l-12.702 15.77c-1.121-.47-2.407-.8-3.717-.824l-6.939-.067s-.082.07-.153-.012l-7.619-18.405a1.176 1.176 0 00-1.57-.66c-.72.331-.931 1.086-.671 1.723l7.43 17.85c-1.582.496-2.95 1.24-4.2 2.457a10.105 10.105 0 00-2.924 6.95l-.055 8.792c-.046 2.62.923 5.085 2.788 6.925.354.413.791.755 1.228 1.097-1.522.732-2.312 1.983-2.311 3.99 0 2.005.71 3.834 2.138 5.332 1.357 1.415 3.222 2.252 5.228 2.251l8.024-.003c2.006-.001 3.846-.863 5.18-2.15 1.415-1.358 2.252-3.222 2.18-5.31-.024-.697-.52-1.275-1.216-1.251-.696.024-1.274.52-1.25 1.216-.058 2.773-2.157 5.004-4.93 4.946l-8.024.004c-1.31-.023-2.585-.507-3.435-1.498a4.818 4.818 0 01-1.429-3.503c.035-1.464.518-1.735 1.002-2.007.873-.319 2.265-.367 3.729-.332l8.33.02s.154.012.236-.059c2.254-.213 4.413-1.206 6.076-2.776a10.106 10.106 0 002.923-6.951l-.11-8.65c.046-2.619-.922-5.085-2.787-6.925-.284-.33-.65-.59-1.016-.849l12.973-16.29c.342-.436.306-.979.106-1.38C57.835 13.24 49.912.83 37.546.116zm8.89 39.1l-.055 8.791c0 2.006-.836 3.871-2.18 5.311-1.416 1.358-3.174 2.15-5.097 2.08l-6.939-.069c-1.923-.07-3.717-.824-5.157-2.168-1.358-1.416-2.066-3.245-2.067-5.25l.055-8.791c-.001-2.006.836-3.871 2.18-5.311 1.416-1.358 3.174-2.15 5.097-2.08l6.938.069c1.924.07 3.718.824 5.158 2.168 1.358 1.416 2.066 3.244 2.067 5.25z" fill="#444"/></svg>