<svg width="69" height="69" fill="none" xmlns="http://www.w3.org/2000/svg"><path d="M44.06.034c-.72-.007-1.251.563-1.207 1.186l-.019 2.873-2.158-.019-.03-2.777c.005-.718-.567-1.25-1.191-1.208-.72-.006-1.25.564-1.207 1.187l-.018 2.873-2.159-.019-.03-2.778c.1-.67-.472-1.2-1.191-1.207-.624.042-1.107.517-1.207 1.187l.03 2.777-2.111.125.018-2.873C31.537.74 30.964.207 30.294.105c-.624.043-1.156.613-1.16 1.33l.03 2.778-2.159-.018-.03-2.778C26.98.699 26.409.167 25.69.161c-.624.042-1.155.612-1.112 1.235L24.56 4.27c-2.64.216-4.67 2.545-4.686 5.178-.025 3.83 3.956 3.818 5.3 3.782l2.206-.077.06 5.555c-2.554 1.941-4.394 4.607-4.414 7.719l1.708 32.576c.032 2.538 1.07 4.989 2.834 6.728 1.86 1.788 4.251 2.767 6.794 2.74l2.398.022c2.638.023 5.043-1.153 6.733-2.815a9.296 9.296 0 002.681-6.68L47.2 26.254c.01-1.437-.461-2.878-1.268-4.13-.284-.624-.907-.821-1.58-.444-.53.33-.679 1.095-.347 1.625.618.915.947 1.923.941 2.881L43.919 58.93a7.172 7.172 0 01-7.05 7.217l-2.397-.021a7.158 7.158 0 01-7.197-7.15l-1.804-32.625c-.022-3.974 4.603-7.142 8.489-7.204l2.398.021c1.583-.034 3.163.41 4.644 1.285.574.293 1.342.204 1.682-.464.146-.286.196-.62.102-.909l-.057-6.033 2.398.02c.863-.04 3.022-.021 4.277-1.303.531-.57.968-1.428.928-2.53.009-1.436-.559-2.686-1.607-3.7-.953-.967-2.15-1.456-3.444-1.515l.019-2.873C45.207.618 44.684-.01 44.06.034zm3.825 9.275c.044.623.04 1.34-2.743 1.364l-12.232.133c-.335-.05-.672.138-.913.375-.242.238-.387.524-.342.907-.005.718.567 1.25 1.191 1.208l7.387-.08.068 4.358a10.066 10.066 0 00-4.072-.753l-2.398-.021c-1.343.036-2.688.311-4.034.826l-.06-5.555c.05-.334-.14-.671-.378-.913-.239-.241-.525-.387-.91-.343l-3.405.066c-2.782.024-2.778-.694-2.773-1.413-.038-1.58 1.217-2.862 2.752-2.8l.72.005 9.16-.015 4.606-.056 4.605-.056.959.009c1.487-.083 2.774 1.173 2.812 2.754z" fill="#444"/></svg>