<svg width="64" height="63" fill="none" xmlns="http://www.w3.org/2000/svg"><path d="M62.57 13.774C59.744 3.827 49.344-2.05 39.397.662c-6.217 1.695-11.078 6.443-13 12.547L.852 22.59c-.565.226-1.018.904-.792 1.583l3.505 12.773c.226.678.79 1.017 1.47.904l26.563-5.2c2.6 2.374 5.878 3.957 9.27 4.635v.113l5.086 18.539c1.244 4.408 5.765 7.008 10.287 5.765 4.408-1.244 7.008-5.765 5.765-10.287l-5.2-18.651c5.426-4.522 7.687-11.983 5.765-18.99zm-8.026 17.747c-.452.34-.565.791-.452 1.357l5.426 19.33c.904 3.051-.904 6.217-4.07 7.12-3.051.905-6.217-.904-7.12-4.069l-1.923-7.573 2.713-.791c.679-.227 1.13-.905.905-1.583-.226-.678-.905-1.13-1.583-.904l-2.713.79-.339-1.13 2.713-.79c.678-.227 1.13-.905.904-1.583-.226-.678-.904-1.13-1.582-.905l-2.713.792-1.13-4.07a16.797 16.797 0 005.764-.678c.679-.226 1.13-.904.905-1.583-.226-.678-.905-1.13-1.583-.904-5.652 1.583-11.643 0-15.825-4.07l-.226-.225c-.113 0-.113-.113-.226-.113h-.791l-26 5.086L2.66 24.513l24.982-9.27h.226l.113-.113h.113l.113-.113.113-.112.113-.114v-.113s0-.113.113-.226c1.696-5.426 5.991-9.834 11.53-11.304C48.666.775 57.71 5.861 60.083 14.452c1.696 6.33-.452 13-5.539 17.07z" fill="#444"/></svg>