<svg width="16" height="16" fill="none" xmlns="http://www.w3.org/2000/svg"><path d="M8 15.5c-2.2 0-2.5 0-3.333-.05a5.417 5.417 0 01-1.767-.333 3.45 3.45 0 01-1.992-1.992 5.417 5.417 0 01-.358-1.792C.5 10.5.5 10.208.5 8s0-2.5.05-3.333A5.44 5.44 0 01.883 2.9 3.45 3.45 0 012.875.883 5.417 5.417 0 014.667.55C5.5.5 5.792.5 8 .5s2.5 0 3.333.05A5.44 5.44 0 0113.1.883a3.45 3.45 0 011.992 1.992c.22.573.34 1.178.358 1.792 0 .833.05 1.158.05 3.333 0 2.175 0 2.5-.05 3.333a5.415 5.415 0 01-.333 1.767 3.45 3.45 0 01-1.992 1.992 5.417 5.417 0 01-1.767.333C10.5 15.5 10.2 15.5 8 15.5z" stroke="#222" stroke-linecap="round" stroke-linejoin="round"/><path d="M8 10.549A2.55 2.55 0 118 5.45a2.55 2.55 0 010 5.099z" stroke="#222" stroke-linecap="round" stroke-linejoin="round"/><path d="M12.922 3.554a.5.5 0 11-1 0 .5.5 0 011 0z" stroke="#222"/></svg>