<svg width="50" height="69" fill="none" xmlns="http://www.w3.org/2000/svg"><path d="M38.558 46.346c-1.205 0-2.41.241-3.614.723l-4.7-5.542 10.724-27.953v-.12c.12-.362 2.169-9.278-4.097-13.254-.361-.241-.843-.241-1.205-.12-.361.12-.722.481-.843.843L24.461 32.249 12.412 1.525c-.12-.361-.482-.602-.843-.843-.362-.12-.843-.12-1.084.12-2.651 1.566-6.627 6.265-2.892 13.254l11.205 27.712-4.458 5.783c-1.205-.361-2.41-.482-3.614-.482C4.7 47.19-.118 52.25.002 58.274c.12 6.025 5.181 10.844 11.205 10.724 6.025-.12 10.844-5.181 10.724-11.206 0-2.168-.723-4.217-1.928-5.903a1.504 1.504 0 00-1.928-.362 1.504 1.504 0 00-.361 1.928 7.571 7.571 0 011.446 4.458c.12 4.579-3.495 8.314-8.073 8.434-4.578.12-8.314-3.494-8.434-8.073-.12-4.578 3.494-8.313 8.073-8.434 1.204 0 2.41.241 3.494.723.361.12.723.12 1.084 0 .361-.12.602-.361.723-.723l5.301-6.867c.241-.362.362-.844.12-1.326L10.004 13.092v-.12c-2.29-4.459-.723-7.23.602-8.676l12.651 32.532c.241.482.723.843 1.326.843.602 0 1.084-.361 1.204-.964L36.63 3.814c2.651 3.133 1.687 8.314 1.567 9.037L27.353 41.406c-.12.482-.12.964.24 1.326l5.664 6.626c.12.362.482.603.723.723.361.12.723.12 1.084-.12 1.084-.482 2.29-.844 3.494-.844 4.579-.12 8.314 3.495 8.434 8.073.12 4.579-3.494 8.314-8.072 8.434-4.579.12-8.314-3.494-8.435-8.072 0-1.567.362-3.133 1.205-4.579.241-.482.241-1.084-.12-1.566l-5.06-6.145c-.483-.603-1.326-.723-1.928-.241-.603.482-.723 1.325-.241 1.928l4.699 5.422c-.844 1.566-1.205 3.373-1.085 5.18.12 6.025 5.181 10.844 11.206 10.724 6.024-.12 10.843-5.181 10.723-11.205-.241-6.145-5.181-10.965-11.326-10.724z" fill="#444"/></svg>